<?xml version="1.0" encoding="UTF-8" standalone="no"?>
<svg xmlns="http://www.w3.org/2000/svg" version="1.1" width="3000" height="3000">
	<path d="m 844.56693,2402.78 c 402.60327,303.4812 1010.07757,278.3431 1385.38357,-58.9979 378.8113,-316.3447 495.5823,-894.8031 271.8608,-1334.0075 -28.3084,-57.66662 -61.6303,-112.86752 -99.4319,-164.80722 M 2155.5669,598.18618 C 1966.8306,460.07048 1733.9716,384.4757 1500.0982,385.21742 995.02243,375.73345 518.99493,755.01568 413.37623,1248.5994 c -73.1335,310.329 -4.9041,650.5745 184.4095,907.3993 M 2922.5727,1500.4713 c 7.7679,559.3618 -351.7598,1098.8174 -868.7924,1310.703 C 1545.8536,3032.3932 914.89263,2917.9297 518.65043,2530.1667 117.12471,2157.0816 -29.379446,1542.4248 158.02455,1027.7585 339.24533,494.29408 863.29003,100.96818 1426.8822,79.83281 c 547.8774,-35.41233 1095.5044,282.15175 1340.071,773.04797 102.484,199.42772 155.9608,423.42112 155.6195,647.59052 z" style="fill:#ff0000;fill-opacity:1;stroke:#000000;stroke-width:20;stroke-linecap:round;stroke-linejoin:round;stroke-miterlimit:4;stroke-opacity:1;stroke-dasharray:none" />
	<path d="M 947.99995,2923.9688 1891.2287,1813.3538 1453.5,1975.1251 2067.6876,921.5312 1585,1111.1251 2091.7813,76.0312 l -683.3437,293.25 -500.2189,1152.1876 445.9689,-159.1562 -428.9689,956.25 296.6876,-109.125 c -35.7422,194.4502 -273.90635,714.5312 -273.90635,714.5312 z" style="fill:#ffff00;fill-opacity:1;stroke:#000000;stroke-width:60;stroke-linecap:butt;stroke-linejoin:miter;stroke-miterlimit:4;stroke-opacity:1;stroke-dasharray:none;stroke-dashoffset:0" />
	<g>
		<path d="M 2155.566,598.186 2402.379,844.968 844.567,2402.78 597.786,2155.998 z" style="fill:#ff0000;fill-opacity:1;fill-rule:nonzero;stroke:none" />
		<path d="M 2402.379,844.968 844.567,2402.78 M 597.786,2155.998 2155.566,598.186" style="fill:#ff0000;fill-opacity:1;stroke:#000000;stroke-width:20;stroke-linecap:round;stroke-linejoin:round;stroke-miterlimit:4;stroke-opacity:1;stroke-dasharray:none" />
	</g>
</svg>
