<?xml version="1.0" encoding="UTF-8" standalone="no"?>
<svg xmlns="http://www.w3.org/2000/svg" version="1.1" width="3000" height="3000">
	<path d="M 1500.0149,384.74625 C 994.93907,375.26228 518.9116,754.54447 413.29294,1248.1282 c -73.1335,310.329 -4.90418,650.5745 184.40946,907.3993 C 1116.9628,1636.2567 1636.2232,1116.9858 2155.4836,597.715 1966.7473,459.5993 1733.8883,384.00453 1500.0149,384.74625 z m 902.2812,459.75 C 1883.0253,1363.7671 1363.7544,1883.0379 844.4836,2402.3088 c 402.6033,303.4812 1010.0776,278.3431 1385.3836,-58.9979 378.8113,-316.3447 495.5823,-894.8031 271.8608,-1334.0075 -28.3084,-57.66659 -61.6303,-112.86751 -99.4319,-164.80715 z m 520.1933,655.50385 c 7.7679,559.3618 -351.7598,1098.8174 -868.7924,1310.703 C 1545.7703,3031.922 914.80927,2917.4585 518.56706,2529.6955 117.04137,2156.6104 -29.462788,1541.9536 157.94121,1027.2873 339.16204,493.82288 863.20673,100.49701 1426.7989,79.361634 1974.6763,43.949311 2522.3033,361.51339 2766.8699,852.40956 c 102.484,199.42774 155.9608,423.42114 155.6195,647.59054 z" style="fill:#ff0000;fill-opacity:1;stroke:#000000;stroke-width:20;stroke-linejoin:round;stroke-miterlimit:4;stroke-opacity:1;stroke-dasharray:none" />
</svg>
